/* XPM */
static char * battery0_xpm[] = {
"26 22 3 1",
" 	c None",
"#	c #cccccc",
".	c #777777",
"                          ",
"                          ",
"                          ",
"                          ",
"                          ",
"   ####################   ",
"  ##                  ##  ",
"  # .................. #  ",
"  # ........#......... ## ",
"  # ....#...##........ # #",
"  # .....##.###....... # #",
"  # ......######...... # #",
"  # .......###..#..... # #",
"  # .........#........ ###",
"  # .................. #  ",
"  #                    #  ",
"   ####################   ",
"                          ",
"                          ",
"                          ",
"                          ",
"                          "};
