/* XPM */
static char * battery0_xpm[] = {
"26 22 2 1",
" 	c None",
"#	c #cccccc",
"                          ",
"                          ",
"                          ",
"                          ",
"                          ",
"   ####################   ",
"  ##                  ##  ",
"  # ####               #  ",
"  # ####               ## ",
"  # ####               # #",
"  # ####               # #",
"  # ####               # #",
"  # ####               # #",
"  # ####               ###",
"  # ####               #  ",
"  #                    #  ",
"   ####################   ",
"                          ",
"                          ",
"                          ",
"                          ",
"                          "};
