/* XPM */
static char * xpm[] = {
"24 22 2 1",
" 	c None",
"#	c #777777",
"                        ",
"                        ",
"                        ",
"                        ",
"                        ",
"      ################# ",
"     ###################",
"    ####################",
"    ####################",
"   #################### ",
"   #################### ",
"  ####################  ",
"  ####################  ",
" ####################   ",
" ####################   ",
"####################    ",
"####################    ",
"###################     ",
" #################      ",
"                        ",
"                        ",
"                        "};
