/* XPM */
static char * wire_xpm[] = {
"24 22 3 1",
" 	c None",
"#	c #cccccc",
".	c #555555",
"                        ",
"                        ",
"                        ",
"                        ",
"                        ",
"      ################# ",
"     #.................#",
"    #..................#",
"    #..................#",
"   #..................# ",
"   #..................# ",
"  #..................#  ",
"  #..................#  ",
" #..................#   ",
" #..................#   ",
"#..................#    ",
"#..................#    ",
"#.................#     ",
" #################      ",
"                        ",
"                        ",
"                        "};
