/* XPM */
static char * volume_xpm[] = {
"24 22 2 1",
" 	c None",
"#	c #cccccc",
"                        ",
"                        ",
"                        ",
"                 ##     ",
"                 ###    ",
"              #   ##    ",
"       ##     ##   ##   ",
"      ###      ##  ##   ",
"     ####  ##  ##   ##  ",
"  #######  ##  ###  ##  ",
"  #######   ##  ##  ##  ",
"  #######   ##  ##  ##  ",
"  #######   ##  ##  ##  ",
"  #######   ##  ##  ##  ",
"     ####  ##  ##   ##  ",
"      ###  #   ##  ##   ",
"       ##     ##   ##   ",
"              ##  ##    ",
"                 ###    ",
"                 ##     ",
"                        ",
"                        "};
