/* XPM */
static char * volume_xpm[] = {
"24 22 3 1",
" 	c None",
"#	c #cccccc",
".	c #777777",
"                        ",
"                        ",
"                        ",
"                 ..     ",
"                 ...    ",
"              #   ..    ",
"       ##     ##   ..   ",
"      ###      ##  ..   ",
"     ####  ##  ##   ..  ",
"  #######  ##  ###  ..  ",
"  #######   ##  ##  ..  ",
"  #######   ##  ##  ..  ",
"  #######   ##  ##  ..  ",
"  #######   ##  ##  ..  ",
"     ####  ##  ##   ..  ",
"      ###  #   ##  ..   ",
"       ##     ##   ..   ",
"              ##  ..    ",
"                 ...    ",
"                 ..     ",
"                        ",
"                        "};
