/* XPM */
static char * volume0_xpm[] = {
"24 22 2 1",
" 	c None",
".	c #777777",
"                        ",
"                        ",
"                        ",
"                        ",
"                        ",
"                        ",
"       ..               ",
"      ...               ",
"     ....    .   .      ",
"  .......   ... ...     ",
"  .......    .....      ",
"  .......     ...       ",
"  .......    .....      ",
"  .......   ... ...     ",
"     ....    .   .      ",
"      ...               ",
"       ..               ",
"                        ",
"                        ",
"                        ",
"                        ",
"                        "};
