/* XPM */
static char * nonet_xpm[] = {
"22 22 2 1",
" 	c None",
".	c #777777",
"                      ",
"                      ",
"                      ",
"                      ",
"                      ",
"       ........       ",
"    ...        ...    ",
"   .              .   ",
"  .                .  ",
"  .                .  ",
"   .              .   ",
"    .            .    ",
"     .          .     ",
"      .        .      ",
"       .      .       ",
"        .    .        ",
"         .  .         ",
"          ..          ",
"                      ",
"                      ",
"                      ",
"                      "};
