/* XPM */
static char * wifi_xpm[] = {
"22 22 3 1",
" 	c None",
"#	c #cccccc",
".	c #777777",
"                      ",
"                      ",
"                      ",
"                      ",
"                      ",
"       ........       ",
"    ..............    ",
"   ....        ....   ",
" ...             .... ",
" ..    ........    .. ",
"     ............     ",
"    ...        ...    ",
"    .    ####    .    ",
"       ########       ",
"       ##    ##       ",
"                      ",
"         ####         ",
"          ##          ",
"                      ",
"                      ",
"                      ",
"                      "};
