/* XPM */
static char * wire_xpm[] = {
"22 22 3 1",
" 	c None",
".	c #777777",
"#	c #cccccc",
"                      ",
"                      ",
"                      ",
"      ##              ",
"     ####             ",
"    ######            ",
"   ########           ",
"  ##########          ",
"     ####    ....     ",
"     ####    ....     ",
"     ####    ....     ",
"     ####    ....     ",
"     ####    ....     ",
"     ####    ....     ",
"     ####    ....     ",
"          ..........  ",
"           ........   ",
"            ......    ",
"             ....     ",
"              ..      ",
"                      ",
"                      "};
